<svg width="154" height="61" viewBox="0 0 154 61" fill="none" xmlns="http://www.w3.org/2000/svg">
<path d="M7.44 29.21C6.24 29.21 5.06 29.06 3.9 28.76C2.76 28.44 1.74 27.99 0.84 27.41L1.71 25.22C2.47 25.7 3.34 26.08 4.32 26.36C5.3 26.62 6.29 26.75 7.29 26.75C8.21 26.75 9 26.64 9.66 26.42C10.34 26.2 10.86 25.9 11.22 25.52C11.58 25.12 11.76 24.66 11.76 24.14C11.76 23.4 11.43 22.83 10.77 22.43C10.11 22.03 9.19 21.83 8.01 21.83H5.13V19.76H7.83C8.53 19.76 9.14 19.68 9.66 19.52C10.18 19.36 10.58 19.12 10.86 18.8C11.16 18.46 11.31 18.07 11.31 17.63C11.31 17.15 11.14 16.74 10.8 16.4C10.46 16.06 9.98 15.8 9.36 15.62C8.76 15.44 8.05 15.35 7.23 15.35C6.43 15.37 5.61 15.48 4.77 15.68C3.95 15.88 3.11 16.19 2.25 16.61L1.47 14.36C2.43 13.9 3.37 13.55 4.29 13.31C5.23 13.05 6.16 12.91 7.08 12.89C8.46 12.85 9.69 13.01 10.77 13.37C11.85 13.71 12.7 14.21 13.32 14.87C13.96 15.53 14.28 16.31 14.28 17.21C14.28 17.97 14.04 18.65 13.56 19.25C13.08 19.83 12.44 20.29 11.64 20.63C10.84 20.97 9.92 21.14 8.88 21.14L9 20.45C10.78 20.45 12.18 20.8 13.2 21.5C14.22 22.2 14.73 23.15 14.73 24.35C14.73 25.31 14.41 26.16 13.77 26.9C13.13 27.62 12.26 28.19 11.16 28.61C10.08 29.01 8.84 29.21 7.44 29.21ZM28.8584 29V25.64L28.7084 25.01V19.28C28.7084 18.06 28.3484 17.12 27.6284 16.46C26.9284 15.78 25.8684 15.44 24.4484 15.44C23.5084 15.44 22.5884 15.6 21.6884 15.92C20.7884 16.22 20.0284 16.63 19.4084 17.15L18.2084 14.99C19.0284 14.33 20.0084 13.83 21.1484 13.49C22.3084 13.13 23.5184 12.95 24.7784 12.95C26.9584 12.95 28.6384 13.48 29.8184 14.54C30.9984 15.6 31.5884 17.22 31.5884 19.4V29H28.8584ZM23.6384 29.18C22.4584 29.18 21.4184 28.98 20.5184 28.58C19.6384 28.18 18.9584 27.63 18.4784 26.93C17.9984 26.21 17.7584 25.4 17.7584 24.5C17.7584 23.64 17.9584 22.86 18.3584 22.16C18.7784 21.46 19.4484 20.9 20.3684 20.48C21.3084 20.06 22.5684 19.85 24.1484 19.85H29.1884V21.92H24.2684C22.8284 21.92 21.8584 22.16 21.3584 22.64C20.8584 23.12 20.6084 23.7 20.6084 24.38C20.6084 25.16 20.9184 25.79 21.5384 26.27C22.1584 26.73 23.0184 26.96 24.1184 26.96C25.1984 26.96 26.1384 26.72 26.9384 26.24C27.7584 25.76 28.3484 25.06 28.7084 24.14L29.2784 26.12C28.8984 27.06 28.2284 27.81 27.2684 28.37C26.3084 28.91 25.0984 29.18 23.6384 29.18ZM36.7744 29V13.1H51.5044V29H48.6244V14.9L49.3144 15.62H38.9644L39.6544 14.9V29H36.7744ZM57.0771 29V13.1H59.9571V24.68L69.7071 13.1H72.3171V29H69.4371V17.42L59.7171 29H57.0771ZM84.8372 29.18C83.2172 29.18 81.7672 28.83 80.4872 28.13C79.2272 27.43 78.2372 26.47 77.5172 25.25C76.7972 24.03 76.4372 22.63 76.4372 21.05C76.4372 19.47 76.7972 18.07 77.5172 16.85C78.2372 15.63 79.2272 14.68 80.4872 14C81.7672 13.3 83.2172 12.95 84.8372 12.95C86.2772 12.95 87.5572 13.24 88.6772 13.82C89.8172 14.38 90.6972 15.22 91.3172 16.34L89.1272 17.75C88.6072 16.97 87.9672 16.4 87.2072 16.04C86.4672 15.66 85.6672 15.47 84.8072 15.47C83.7672 15.47 82.8372 15.7 82.0172 16.16C81.1972 16.62 80.5472 17.27 80.0672 18.11C79.5872 18.93 79.3472 19.91 79.3472 21.05C79.3472 22.19 79.5872 23.18 80.0672 24.02C80.5472 24.86 81.1972 25.51 82.0172 25.97C82.8372 26.43 83.7672 26.66 84.8072 26.66C85.6672 26.66 86.4672 26.48 87.2072 26.12C87.9672 25.74 88.6072 25.16 89.1272 24.38L91.3172 25.76C90.6972 26.86 89.8172 27.71 88.6772 28.31C87.5572 28.89 86.2772 29.18 84.8372 29.18ZM102.396 18.5C104.416 18.52 105.956 18.98 107.016 19.88C108.076 20.78 108.606 22.05 108.606 23.69C108.606 25.41 108.026 26.74 106.866 27.68C105.706 28.6 104.066 29.05 101.946 29.03L95.0459 29V13.1H97.9259V18.47L102.396 18.5ZM101.706 26.84C103.006 26.86 103.986 26.6 104.646 26.06C105.326 25.52 105.666 24.72 105.666 23.66C105.666 22.62 105.336 21.86 104.676 21.38C104.016 20.9 103.026 20.65 101.706 20.63L97.9259 20.57V26.81L101.706 26.84ZM112.727 29.18C112.167 29.18 111.687 28.99 111.287 28.61C110.887 28.21 110.687 27.71 110.687 27.11C110.687 26.51 110.887 26.02 111.287 25.64C111.687 25.26 112.167 25.07 112.727 25.07C113.267 25.07 113.727 25.26 114.107 25.64C114.507 26.02 114.707 26.51 114.707 27.11C114.707 27.71 114.507 28.21 114.107 28.61C113.727 28.99 113.267 29.18 112.727 29.18ZM127.324 29.18C126.004 29.18 124.794 28.88 123.694 28.28C122.614 27.66 121.744 26.75 121.084 25.55C120.444 24.35 120.124 22.85 120.124 21.05C120.124 19.25 120.434 17.75 121.054 16.55C121.694 15.35 122.554 14.45 123.634 13.85C124.734 13.25 125.964 12.95 127.324 12.95C128.884 12.95 130.264 13.29 131.464 13.97C132.664 14.65 133.614 15.6 134.314 16.82C135.014 18.02 135.364 19.43 135.364 21.05C135.364 22.67 135.014 24.09 134.314 25.31C133.614 26.53 132.664 27.48 131.464 28.16C130.264 28.84 128.884 29.18 127.324 29.18ZM118.894 34.82V13.1H121.654V17.39L121.474 21.08L121.774 24.77V34.82H118.894ZM127.084 26.66C128.104 26.66 129.014 26.43 129.814 25.97C130.634 25.51 131.274 24.86 131.734 24.02C132.214 23.16 132.454 22.17 132.454 21.05C132.454 19.91 132.214 18.93 131.734 18.11C131.274 17.27 130.634 16.62 129.814 16.16C129.014 15.7 128.104 15.47 127.084 15.47C126.084 15.47 125.174 15.7 124.354 16.16C123.554 16.62 122.914 17.27 122.434 18.11C121.974 18.93 121.744 19.91 121.744 21.05C121.744 22.17 121.974 23.16 122.434 24.02C122.914 24.86 123.554 25.51 124.354 25.97C125.174 26.43 126.084 26.66 127.084 26.66ZM139.918 35C139.158 35 138.418 34.87 137.698 34.61C136.978 34.37 136.358 34.01 135.838 33.53L137.068 31.37C137.468 31.75 137.908 32.04 138.388 32.24C138.868 32.44 139.378 32.54 139.918 32.54C140.618 32.54 141.198 32.36 141.658 32C142.118 31.64 142.548 31 142.948 30.08L143.938 27.89L144.238 27.53L150.478 13.1H153.298L145.588 30.59C145.128 31.71 144.608 32.59 144.028 33.23C143.468 33.87 142.848 34.32 142.168 34.58C141.488 34.86 140.738 35 139.918 35ZM143.698 29.51L136.438 13.1H139.438L145.618 27.26L143.698 29.51Z" fill="white"/>
<path d="M55.98 55.04C54.3133 55.04 52.8867 54.8067 51.7 54.34C50.5133 53.86 49.6 53.1667 48.96 52.26C48.32 51.3533 48 50.26 48 48.98C48 47.7 48.32 46.6133 48.96 45.72C49.6 44.8133 50.5133 44.12 51.7 43.64C52.8867 43.16 54.3133 42.92 55.98 42.92C55.9933 42.92 56.0267 42.92 56.08 42.92C56.1333 42.92 56.1867 42.92 56.24 42.92C56.2933 42.92 56.3267 42.92 56.34 42.92C58.02 42.92 59.4533 43.16 60.64 43.64C61.8267 44.12 62.74 44.8133 63.38 45.72C64.02 46.6133 64.34 47.7 64.34 48.98C64.34 50.26 64.02 51.3533 63.38 52.26C62.7533 53.1667 61.8467 53.86 60.66 54.34C59.4733 54.8067 58.0533 55.04 56.4 55.04C56.3733 55.04 56.3267 55.04 56.26 55.04C56.2067 55.04 56.1467 55.04 56.08 55.04C56.0267 55.04 55.9933 55.04 55.98 55.04ZM56.14 53.88C56.1667 53.88 56.1933 53.88 56.22 53.88C56.2467 53.88 56.2667 53.88 56.28 53.88C57.68 53.8667 58.8733 53.6733 59.86 53.3C60.86 52.9133 61.62 52.36 62.14 51.64C62.66 50.9067 62.92 50.02 62.92 48.98C62.92 47.9267 62.6533 47.04 62.12 46.32C61.6 45.6 60.8467 45.0533 59.86 44.68C58.8867 44.2933 57.7067 44.1 56.32 44.1C56.3067 44.1 56.28 44.1 56.24 44.1C56.2 44.1 56.1667 44.1 56.14 44.1C54.7267 44.1 53.52 44.2867 52.52 44.66C51.52 45.0333 50.7533 45.5867 50.22 46.32C49.6867 47.04 49.42 47.9267 49.42 48.98C49.42 50.0467 49.6867 50.9467 50.22 51.68C50.7667 52.4 51.54 52.9467 52.54 53.32C53.5533 53.6933 54.7533 53.88 56.14 53.88ZM55.48 56.48V41.52H56.86V56.48H55.48ZM67.6998 56V42H77.9398V43.26H69.1598V47.84H73.7398C75.3932 47.84 76.6465 48.18 77.4998 48.86C78.3665 49.5267 78.7998 50.5133 78.7998 51.82C78.7998 53.1667 78.3332 54.2 77.3998 54.92C76.4798 55.64 75.1532 56 73.4198 56H67.6998ZM69.1598 54.82H73.3998C74.6932 54.82 75.6665 54.5733 76.3198 54.08C76.9865 53.5733 77.3198 52.84 77.3198 51.88C77.3198 49.9733 76.0132 49.02 73.3998 49.02H69.1598V54.82ZM81.5419 54.62C82.2219 54.8867 82.8619 54.9533 83.4619 54.82C84.0619 54.6733 84.6152 54.2 85.1219 53.4L85.8019 52.32L85.9419 52.14L91.3019 42H92.7819L86.4219 53.72C85.9952 54.5333 85.4885 55.14 84.9019 55.54C84.3285 55.94 83.7152 56.1533 83.0619 56.18C82.4219 56.2067 81.7752 56.0867 81.1219 55.82L81.5419 54.62ZM85.9019 53.48L79.8419 42H81.4219L86.7019 52.26L85.9019 53.48ZM93.6375 54.32L94.1775 53.26C94.7908 53.7933 95.4775 54.1933 96.2375 54.46C97.0108 54.7133 97.7842 54.8467 98.5575 54.86C99.3308 54.86 100.038 54.7467 100.678 54.52C101.331 54.2933 101.858 53.96 102.258 53.52C102.658 53.0667 102.858 52.52 102.858 51.88C102.858 51.0667 102.531 50.44 101.878 50C101.238 49.56 100.344 49.34 99.1975 49.34H96.1975V48.14H99.1175C100.104 48.14 100.871 47.9333 101.418 47.52C101.978 47.0933 102.258 46.5067 102.258 45.76C102.258 45.2267 102.098 44.7733 101.778 44.4C101.471 44.0133 101.044 43.72 100.498 43.52C99.9642 43.3067 99.3642 43.1933 98.6975 43.18C98.0308 43.1533 97.3375 43.24 96.6175 43.44C95.9108 43.6267 95.2242 43.9267 94.5575 44.34L94.0775 43.12C94.9042 42.6267 95.7642 42.2867 96.6575 42.1C97.5508 41.9 98.4175 41.8333 99.2575 41.9C100.098 41.9667 100.851 42.16 101.518 42.48C102.198 42.8 102.738 43.22 103.138 43.74C103.538 44.26 103.738 44.88 103.738 45.6C103.738 46.2667 103.564 46.8533 103.217 47.36C102.884 47.8667 102.411 48.26 101.798 48.54C101.198 48.8067 100.484 48.94 99.6575 48.94L99.7375 48.5C100.671 48.5 101.478 48.6467 102.158 48.94C102.851 49.2333 103.384 49.6533 103.758 50.2C104.144 50.7333 104.338 51.36 104.338 52.08C104.338 52.76 104.164 53.3667 103.818 53.9C103.484 54.42 103.018 54.86 102.418 55.22C101.831 55.5667 101.171 55.82 100.438 55.98C99.7042 56.1267 98.9375 56.1667 98.1375 56.1C97.3375 56.0333 96.5508 55.86 95.7775 55.58C95.0042 55.2867 94.2908 54.8667 93.6375 54.32Z" fill="white"/>
</svg>
